<svg width="24" height="16" viewBox="0 0 24 16" fill="none" xmlns="http://www.w3.org/2000/svg">
<path d="M19 0H5C3.67392 0 2.40215 0.526784 1.46447 1.46447C0.526784 2.40215 0 3.67392 0 5V11C0 12.3261 0.526784 13.5979 1.46447 14.5355C2.40215 15.4732 3.67392 16 5 16H19C20.3261 16 21.5979 15.4732 22.5355 14.5355C23.4732 13.5979 24 12.3261 24 11V5C24 3.67392 23.4732 2.40215 22.5355 1.46447C21.5979 0.526784 20.3261 0 19 0ZM12 12C11.2089 12 10.4355 11.7654 9.77772 11.3259C9.11992 10.8864 8.60723 10.2616 8.30448 9.53073C8.00173 8.79983 7.92252 7.99556 8.07686 7.21964C8.2312 6.44371 8.61216 5.73098 9.17157 5.17157C9.73098 4.61216 10.4437 4.2312 11.2196 4.07686C11.9956 3.92252 12.7998 4.00173 13.5307 4.30448C14.2616 4.60723 14.8864 5.11992 15.3259 5.77772C15.7654 6.43552 16 7.20887 16 8C16 9.06087 15.5786 10.0783 14.8284 10.8284C14.0783 11.5786 13.0609 12 12 12Z" fill="#00A86B"/>
</svg>
