<svg width="12" height="11" viewBox="0 0 12 11" fill="none" xmlns="http://www.w3.org/2000/svg">
<path d="M6.9076 1.29C6.81463 1.19627 6.70403 1.12188 6.58217 1.07111C6.46031 1.02034 6.32961 0.994202 6.1976 0.994202C6.06558 0.994202 5.93488 1.02034 5.81302 1.07111C5.69116 1.12188 5.58056 1.19627 5.4876 1.29L1.2476 5.54C1.05399 5.72698 0.942587 5.98321 0.937898 6.25232C0.93321 6.52144 1.03562 6.78139 1.2226 6.975C1.40957 7.16861 1.6658 7.28001 1.93492 7.2847C2.20403 7.28939 2.46399 7.18698 2.6576 7L5.1976 4.41V10C5.1976 10.2652 5.30295 10.5196 5.49049 10.7071C5.67803 10.8946 5.93238 11 6.1976 11C6.46281 11 6.71717 10.8946 6.9047 10.7071C7.09224 10.5196 7.1976 10.2652 7.1976 10V4.41L9.7376 7C9.92386 7.18474 10.1753 7.2889 10.4376 7.29C10.5775 7.29761 10.7175 7.27573 10.8484 7.22577C10.9793 7.17581 11.0983 7.09889 11.1976 7C11.3838 6.81264 11.4884 6.55919 11.4884 6.295C11.4884 6.03081 11.3838 5.77736 11.1976 5.59L6.9076 1.29Z" fill="#FD3C4A"/>
</svg>
