<svg width="12" height="10" viewBox="0 0 12 10" fill="none" xmlns="http://www.w3.org/2000/svg">
<path d="M6.00003 0C5.73481 0 5.48046 0.105357 5.29292 0.292893C5.10538 0.48043 5.00003 0.734784 5.00003 1V6.59L2.46003 4.05C2.26873 3.88617 2.02265 3.80057 1.77097 3.81029C1.5193 3.82001 1.28056 3.92434 1.10246 4.10244C0.92437 4.28053 0.820037 4.51927 0.810316 4.77095C0.800595 5.02262 0.886201 5.2687 1.05003 5.46L5.29003 9.71C5.38218 9.79995 5.49083 9.87126 5.61003 9.92C5.73341 9.97226 5.86604 9.99919 6.00003 9.99919C6.13402 9.99919 6.26664 9.97226 6.39003 9.92C6.50922 9.87126 6.61788 9.79995 6.71003 9.71L11 5.46C11.1639 5.2687 11.2495 5.02262 11.2397 4.77095C11.23 4.51927 11.1257 4.28053 10.9476 4.10244C10.7695 3.92434 10.5308 3.82001 10.2791 3.81029C10.0274 3.80057 9.78133 3.88617 9.59003 4.05L7.00003 6.59V1C7.00003 0.734784 6.89467 0.48043 6.70714 0.292893C6.5196 0.105357 6.26524 0 6.00003 0Z" fill="#00A86B"/>
</svg>
